<svg width="23" height="10" viewBox="0 0 23 10" fill="none" xmlns="http://www.w3.org/2000/svg">
<path d="M18.2083 0C15.5221 0 12.523 2.97035 11.5 4.07435C10.477 2.96988 7.47787 0 4.79167 0C1.79112 0 0 1.79112 0 4.79167C0 7.79221 1.79112 9.58333 4.79167 9.58333C7.47787 9.58333 10.477 6.61298 11.5 5.50898C12.523 6.61346 15.5221 9.58333 18.2083 9.58333C21.2089 9.58333 23 7.79221 23 4.79167C23 1.79112 21.2089 0 18.2083 0ZM4.79167 8.625C1.45667 8.625 0.958333 6.22342 0.958333 4.79167C0.958333 3.35992 1.45667 0.958333 4.79167 0.958333C7.12137 0.958333 9.96762 3.82902 10.8565 4.79167C9.9681 5.75479 7.12473 8.625 4.79167 8.625ZM18.2083 8.625C15.8786 8.625 13.0324 5.75431 12.1435 4.79167C13.0319 3.82854 15.8753 0.958333 18.2083 0.958333C21.5433 0.958333 22.0417 3.35992 22.0417 4.79167C22.0417 6.22342 21.5433 8.625 18.2083 8.625Z" fill="white"/>
</svg>
