<svg width="17" height="14" viewBox="0 0 17 14" fill="none" xmlns="http://www.w3.org/2000/svg">
<path d="M16.6125 6.35L9.3 0.662502C9.05625 0.500002 8.73125 0.418752 8.40625 0.581252C8.1625 0.743752 8 0.987502 8 1.3125V5.375L1.9875 0.662502C1.74375 0.500002 1.41875 0.418752 1.175 0.581252C0.85 0.743752 0.6875 0.987502 0.6875 1.3125V12.6875C0.6875 13.0125 0.85 13.2563 1.175 13.4188C1.25625 13.5 1.41875 13.5 1.5 13.5C1.6625 13.5 1.825 13.4188 1.9875 13.3375L8 8.625V12.6875C8 13.0125 8.1625 13.2563 8.4875 13.4188C8.56875 13.5 8.73125 13.5 8.8125 13.5C8.975 13.5 9.1375 13.4188 9.3 13.3375L16.6125 7.65C16.775 7.4875 16.9375 7.24375 16.9375 7C16.9375 6.75625 16.8563 6.5125 16.6125 6.35Z" fill="white"/>
</svg>
