<svg width="11" height="17" viewBox="0 0 11 17" fill="none" xmlns="http://www.w3.org/2000/svg">
<path d="M9.30782 0.36145C9.07878 0.36145 8.88045 0.44536 8.7129 0.612716L4.31024 5.01543H0.846321C0.617005 5.01543 0.418715 5.09934 0.251266 5.2666C0.0837708 5.43405 0 5.63248 0 5.86161V10.9383C0 11.1675 0.0837708 11.3659 0.251266 11.5333C0.418854 11.7008 0.61719 11.7846 0.846321 11.7846H4.31005L8.71272 16.1875C8.88021 16.3546 9.07855 16.4386 9.30763 16.4386C9.53695 16.4386 9.73524 16.3547 9.90269 16.1875C10.0702 16.0201 10.154 15.8216 10.154 15.5925V1.20777C10.154 0.97864 10.0702 0.780165 9.90288 0.612716C9.73529 0.44536 9.53714 0.36145 9.30782 0.36145Z" fill="white"/>
</svg>
