<svg width="27" height="43" viewBox="0 0 27 43" fill="none" xmlns="http://www.w3.org/2000/svg">
<path d="M13.335 34.686C12.6286 34.686 11.951 34.406 11.4506 33.9075C10.9501 33.4089 10.6676 32.7324 10.665 32.026C10.7067 29.6217 11.3625 27.2681 12.5702 25.1887C13.7779 23.1094 15.4973 21.3735 17.565 20.146C19.0007 19.2551 20.1175 17.9325 20.7552 16.3678C21.393 14.8031 21.5189 13.0767 21.115 11.436C20.6577 9.52561 19.5136 7.85026 17.9006 6.72918C16.2876 5.60809 14.3185 5.11964 12.3685 5.35689C10.4186 5.59415 8.62408 6.54053 7.32698 8.0157C6.02988 9.49086 5.32085 11.3917 5.335 13.356C5.35729 13.7197 5.3049 14.0841 5.18105 14.4268C5.0572 14.7695 4.86452 15.0832 4.61486 15.3486C4.36521 15.614 4.06387 15.8256 3.72939 15.9701C3.39491 16.1147 3.03438 16.1893 2.67 16.1893C2.30561 16.1893 1.94509 16.1147 1.61061 15.9701C1.27613 15.8256 0.974793 15.614 0.725139 15.3486C0.475484 15.0832 0.2828 14.7695 0.158952 14.4268C0.0351033 14.0841 -0.0172894 13.7197 0.00500017 13.356C-0.00139793 11.3531 0.445 9.37461 1.31082 7.5685C2.17665 5.76239 3.43951 4.17534 5.005 2.92597C6.59344 1.66048 8.4482 0.77173 10.4297 0.326581C12.4112 -0.118569 14.4679 -0.108521 16.445 0.355971C19.0081 0.960736 21.3349 2.31061 23.1321 4.23551C24.9294 6.16041 26.1167 8.5742 26.5444 11.1727C26.9722 13.7713 26.6212 16.4383 25.5358 18.8377C24.4504 21.2371 22.679 23.2615 20.445 24.656C19.1468 25.4046 18.0619 26.4731 17.2935 27.7596C16.525 29.0462 16.0987 30.508 16.055 32.006C16.0564 32.3617 15.9867 32.7141 15.85 33.0425C15.7133 33.3709 15.5123 33.6687 15.259 33.9184C15.0056 34.168 14.7048 34.3645 14.3745 34.4963C14.0441 34.6282 13.6907 34.6926 13.335 34.686V34.686Z" fill="white"/>
<path d="M13.335 42.696C14.8096 42.696 16.005 41.5006 16.005 40.026C16.005 38.5514 14.8096 37.356 13.335 37.356C11.8604 37.356 10.665 38.5514 10.665 40.026C10.665 41.5006 11.8604 42.696 13.335 42.696Z" fill="white"/>
</svg>
