<svg width="24" height="20" viewBox="0 0 24 20" fill="none" xmlns="http://www.w3.org/2000/svg">
<g clip-path="url(#clip0_6_62)">
<path fill-rule="evenodd" clip-rule="evenodd" d="M-4.88928e-05 15.0315C-0.00395514 14.6626 0.148389 14.4526 0.490185 14.4299H3.24019C4.40815 14.4299 4.97651 14.4601 5.97065 13.6901C6.18159 13.5274 6.38081 13.3382 6.56831 13.1225C7.45698 12.099 7.77339 10.8597 8.10542 9.5467C8.748 7.00011 9.77144 4.30973 12.496 3.24455C14.0468 2.63912 16.1718 2.75453 17.8496 2.75453H18.8789L18.8808 0.853099C18.8808 -0.0947768 19.1113 -0.259378 19.8164 0.389567L23.6347 3.90484C24.0957 4.32865 24.0312 4.60487 23.5917 5.01354L19.8222 8.51368C19.164 9.15884 18.8671 8.97721 18.8808 8.0861V5.85357C12.2402 5.75519 12.5195 6.16953 10.6679 12.3033C9.98433 14.2028 8.94722 15.5348 7.623 16.407C6.23823 17.3189 4.95112 17.6159 3.32222 17.6159H1.29878C0.138623 17.6159 -4.88928e-05 17.563 -4.88928e-05 16.4126V15.0315ZM0.044873 4.96813C0.0409667 5.33706 0.19331 5.54707 0.535107 5.56978H3.4062C4.57417 5.56978 5.14253 5.53951 6.13667 6.30954C6.34761 6.47225 6.54683 6.66144 6.73433 6.87713C6.96089 7.13822 7.15034 7.41445 7.31245 7.70013C7.60542 6.8128 7.9687 5.94249 8.44917 5.14598C8.58589 4.92083 8.73042 4.70136 8.88472 4.48757C8.54487 4.14702 8.17964 3.84998 7.78901 3.59267C6.40425 2.68074 5.11714 2.3837 3.48823 2.3837H1.3437C0.183545 2.3837 0.044873 2.43668 0.044873 3.58699V4.96813V4.96813ZM10.4628 15.2207C11.041 15.8678 11.7578 16.4013 12.664 16.7551C14.2148 17.3605 16.2207 17.2451 17.8984 17.2451H18.9277L18.9296 19.1465C18.9296 20.0944 19.1601 20.259 19.8652 19.6101L23.6835 16.0948C24.1445 15.671 24.08 15.3948 23.6406 14.9861L19.871 11.486C19.2128 10.8408 18.916 11.0224 18.9296 11.9135V14.1461C14.0898 14.218 12.9882 14.0155 12.0312 11.5276C11.9785 11.7054 11.9062 11.9495 11.6542 12.7857C11.6484 12.8047 11.6425 12.8217 11.6367 12.8387C11.3105 13.7393 10.9179 14.5282 10.4628 15.2207Z" fill="white"/>
</g>
<defs>
<clipPath id="clip0_6_62">
<rect width="24" height="20" fill="white"/>
</clipPath>
</defs>
</svg>
