<svg width="23" height="22" viewBox="0 0 23 22" fill="none" xmlns="http://www.w3.org/2000/svg">
<path d="M15.3318 0V3.99787H5.75C2.57402 3.99787 0 6.68343 0 9.99702C0 11.0047 0.260547 11.9374 0.682812 12.7716L3.05469 11.0094C2.94687 10.6907 2.875 10.3579 2.875 10.0017C2.875 8.34256 4.16426 7.00213 5.75 7.00213H15.3318V11L23 5.99915V5.00085L15.3318 0ZM19.9453 10.9906C20.0531 11.3093 20.125 11.6421 20.125 11.9983C20.125 13.6574 18.8402 14.9979 17.25 14.9979H7.66816V11L0 16.0009V16.9991L7.66816 22V18.0021H17.25C20.426 18.0021 23 15.3166 23 12.003C23 10.9953 22.7395 10.0626 22.3172 9.22838L19.9453 10.9906Z" fill="white"/>
</svg>
