<svg width="22" height="19" viewBox="0 0 22 19" fill="none" xmlns="http://www.w3.org/2000/svg">
<path d="M9.30782 1.36145C9.07878 1.36145 8.88045 1.44536 8.7129 1.61272L4.31024 6.01543H0.846321C0.617005 6.01543 0.418715 6.09934 0.251266 6.2666C0.0837708 6.43405 0 6.63248 0 6.86161V11.9383C0 12.1675 0.0837708 12.3659 0.251266 12.5333C0.418854 12.7008 0.61719 12.7846 0.846321 12.7846H4.31005L8.71272 17.1875C8.88021 17.3546 9.07855 17.4386 9.30763 17.4386C9.53695 17.4386 9.73524 17.3547 9.90269 17.1875C10.0702 17.0201 10.154 16.8216 10.154 16.5925V2.20777C10.154 1.97864 10.0702 1.78017 9.90288 1.61272C9.73529 1.44536 9.53714 1.36145 9.30782 1.36145Z" fill="white"/>
<path d="M14.6689 11.2706C15.0436 10.6933 15.2308 10.0698 15.2308 9.39998C15.2308 8.73013 15.0436 8.10373 14.6689 7.52192C14.294 6.9402 13.7987 6.53047 13.1814 6.2924C13.0933 6.24845 12.983 6.22632 12.8508 6.22632C12.6219 6.22632 12.4233 6.30791 12.2559 6.47092C12.0887 6.63397 12.0046 6.83453 12.0046 7.07245C12.0046 7.25755 12.0575 7.41402 12.1635 7.54188C12.2692 7.66978 12.3969 7.77999 12.547 7.87247C12.6966 7.96499 12.8465 8.0664 12.9966 8.17657C13.1465 8.28678 13.2742 8.44321 13.3799 8.6459C13.4853 8.84873 13.5386 9.0999 13.5386 9.39965C13.5386 9.69931 13.4856 9.95053 13.3799 10.1534C13.2742 10.3562 13.1465 10.5125 12.9966 10.6229C12.8465 10.7331 12.6966 10.8345 12.547 10.927C12.3969 11.0193 12.2692 11.1297 12.1635 11.2573C12.0578 11.3853 12.0046 11.5418 12.0046 11.7269C12.0046 11.9651 12.0887 12.1654 12.2559 12.3284C12.4232 12.4914 12.6218 12.5733 12.8508 12.5733C12.983 12.5733 13.0933 12.5511 13.1814 12.5073C13.7987 12.2601 14.2942 11.8479 14.6689 11.2706Z" fill="white"/>
<path d="M17.4918 13.1348C18.241 11.9935 18.6158 10.7486 18.6158 9.39994C18.6158 8.05127 18.241 6.80647 17.4918 5.66447C16.7427 4.52322 15.7506 3.69255 14.5169 3.17242C14.4025 3.12843 14.2878 3.10634 14.1735 3.10634C13.9444 3.10634 13.7458 3.19011 13.5783 3.3576C13.411 3.52505 13.3271 3.72334 13.3271 3.95252C13.3271 4.29631 13.499 4.55633 13.8429 4.73276C14.3364 4.98829 14.6713 5.18218 14.8475 5.31434C15.4999 5.79038 16.0087 6.38743 16.3745 7.1058C16.7403 7.82422 16.9232 8.58886 16.9232 9.39975C16.9232 10.2107 16.7403 10.9753 16.3745 11.6937C16.0088 12.4122 15.4996 13.0091 14.8475 13.485C14.6712 13.6173 14.3364 13.8112 13.8429 14.0668C13.499 14.2432 13.3271 14.5032 13.3271 14.8469C13.3271 15.0761 13.411 15.2746 13.5783 15.4419C13.7458 15.6095 13.9483 15.6934 14.1863 15.6934C14.2922 15.6934 14.4025 15.671 14.5169 15.6273C15.7506 15.1071 16.7427 14.2763 17.4918 13.1348Z" fill="white"/>
<path d="M20.321 3.8143C19.2017 2.11767 17.7119 0.868101 15.852 0.066004C15.7376 0.0220116 15.6229 1.52588e-05 15.5086 1.52588e-05C15.2795 1.52588e-05 15.0809 0.0838788 14.9137 0.251189C14.746 0.418592 14.6622 0.617113 14.6622 0.846244C14.6622 1.1635 14.8342 1.42366 15.178 1.62634C15.2399 1.66135 15.3386 1.70762 15.4753 1.76508C15.6119 1.82213 15.711 1.8684 15.773 1.90368C16.1783 2.12388 16.5398 2.34875 16.8574 2.57792C17.9413 3.37988 18.7876 4.38032 19.3958 5.57909C20.004 6.77776 20.3079 8.05137 20.3079 9.40003C20.3079 10.7489 20.004 12.0223 19.3958 13.221C18.7877 14.4198 17.9413 15.4204 16.8574 16.2221C16.5398 16.4513 16.1783 16.676 15.773 16.8965C15.711 16.9315 15.6119 16.9776 15.4753 17.0349C15.3386 17.092 15.2399 17.1383 15.178 17.1738C14.8342 17.3763 14.6622 17.6365 14.6622 17.9538C14.6622 18.183 14.746 18.3813 14.9137 18.5487C15.0809 18.7162 15.2795 18.8001 15.5086 18.8001C15.6229 18.8001 15.7376 18.778 15.852 18.7338C17.7119 17.932 19.2017 16.6824 20.321 14.9856C21.4404 13.289 22 11.4269 22 9.39976C22 7.37259 21.4406 5.51074 20.321 3.8143Z" fill="white"/>
</svg>
